<?xml version="1.0" standalone="no"?>
<!DOCTYPE svg PUBLIC "-//W3C//DTD SVG 20010904//EN"
 "http://www.w3.org/TR/2001/REC-SVG-20010904/DTD/svg10.dtd">
<svg version="1.0" xmlns="http://www.w3.org/2000/svg"
 width="144.000000pt" height="144.000000pt" viewBox="0 0 144.000000 144.000000"
 preserveAspectRatio="xMidYMid meet">

<g transform="translate(0.000000,144.000000) scale(0.100000,-0.100000)"
fill="#000000" stroke="none">
<path d="M506 1320 c-109 -40 -177 -83 -261 -165 -82 -81 -114 -130 -156 -246
-28 -76 -30 -91 -26 -183 8 -194 74 -341 204 -455 52 -47 172 -111 243 -132
25 -7 49 -16 54 -21 13 -11 259 -10 272 1 5 5 27 14 49 21 87 27 85 22 85 190
0 82 -4 151 -9 154 -5 3 -42 -10 -83 -29 -40 -19 -98 -39 -128 -45 -149 -27
-306 63 -360 206 -74 199 61 403 287 432 l58 7 -3 66 c-2 36 4 95 12 132 24
103 28 97 -71 96 -70 -1 -104 -7 -167 -29z"/>
<path d="M845 1287 c-12 -19 -16 -49 -16 -122 0 -111 2 -116 86 -196 33 -32
67 -77 85 -114 l30 -60 6 -325 c6 -272 9 -328 22 -343 14 -15 28 -17 136 -11
94 5 124 10 134 23 11 13 12 73 7 306 -9 416 -23 504 -95 613 -80 123 -222
226 -342 247 -31 6 -38 4 -53 -18z"/>
</g>
</svg>
