<?xml version="1.0" standalone="no"?>
<!DOCTYPE svg PUBLIC "-//W3C//DTD SVG 20010904//EN"
 "http://www.w3.org/TR/2001/REC-SVG-20010904/DTD/svg10.dtd">
<svg version="1.0" xmlns="http://www.w3.org/2000/svg"
 width="259.000000pt" height="150.000000pt" viewBox="0 0 259.000000 150.000000"
 preserveAspectRatio="xMidYMid meet">

<g transform="translate(0.000000,150.000000) scale(0.100000,-0.100000)"
fill="#000000" stroke="none">
<path d="M429 966 c-116 -41 -178 -155 -150 -274 30 -122 173 -202 290 -161
30 11 31 13 31 71 0 53 -2 59 -17 53 -79 -34 -125 -31 -166 11 -68 67 -30 181
67 199 30 6 31 8 33 61 2 53 1 54 -25 54 -15 -1 -43 -7 -63 -14z"/>
<path d="M556 963 c-3 -4 -6 -26 -6 -51 0 -37 6 -51 33 -82 l34 -37 5 -132 c3
-73 8 -134 10 -137 3 -2 26 -1 51 2 l47 7 0 122 c0 145 -15 207 -62 252 -35
34 -101 67 -112 56z"/>
<path d="M2167 863 c-14 -13 -6 -33 13 -33 13 0 20 7 20 20 0 19 -20 27 -33
13z"/>
<path d="M914 850 c-58 -23 -70 -95 -25 -141 50 -49 131 -30 131 30 0 32 -22
43 -55 30 -17 -7 -16 -8 8 -8 22 -1 27 -6 27 -26 0 -18 -7 -26 -26 -31 -64
-16 -114 40 -84 93 23 40 44 50 80 36 17 -7 32 -7 36 -2 3 5 -7 14 -21 19 -31
12 -43 12 -71 0z"/>
<path d="M1682 782 c-18 -43 -32 -81 -32 -85 0 -15 30 -6 40 13 7 13 21 20 40
20 19 0 34 -7 42 -20 10 -16 48 -29 48 -17 0 2 -15 39 -34 83 -47 108 -62 109
-104 6z m64 -19 c-2 -3 -11 -3 -19 -1 -11 2 -12 9 -5 28 l10 25 9 -24 c5 -13
7 -26 5 -28z"/>
<path d="M1855 798 c-36 -52 -4 -114 55 -106 26 4 30 2 30 -19 0 -16 6 -23 20
-23 20 0 21 5 18 82 l-3 83 -52 2 c-44 2 -55 -1 -68 -19z m75 -23 c6 -8 10
-22 8 -32 -5 -25 -51 -25 -56 0 -8 42 23 63 48 32z"/>
<path d="M2010 768 c0 -29 4 -58 8 -65 4 -7 30 -12 60 -11 l52 0 0 64 c0 57
-2 64 -19 64 -17 0 -20 -8 -23 -47 -2 -35 -7 -49 -20 -51 -14 -3 -17 6 -20 45
-2 36 -7 49 -20 51 -15 3 -18 -4 -18 -50z"/>
<path d="M2160 755 c0 -58 2 -65 20 -65 18 0 20 7 20 65 0 58 -2 65 -20 65
-18 0 -20 -7 -20 -65z"/>
<path d="M1060 746 c0 -71 11 -86 15 -20 2 28 10 44 31 61 19 15 24 23 14 23
-9 0 -22 -6 -28 -12 -10 -10 -15 -10 -22 2 -7 10 -10 -7 -10 -54z"/>
<path d="M1150 765 c0 -32 6 -51 20 -65 21 -21 45 -26 55 -10 3 5 12 7 20 3
12 -4 15 6 15 56 0 34 -4 61 -10 61 -5 0 -10 -23 -10 -50 0 -38 -4 -52 -16
-57 -30 -11 -49 11 -52 61 -4 59 -22 60 -22 1z"/>
<path d="M1300 730 c0 -47 4 -80 10 -80 6 0 10 12 10 26 0 21 3 25 18 18 49
-21 92 5 92 56 0 48 -66 80 -98 48 -9 -9 -12 -9 -12 0 0 7 -4 12 -10 12 -6 0
-10 -33 -10 -80z m91 60 c23 -13 26 -62 4 -80 -23 -19 -64 -4 -71 27 -5 20 -2
31 16 45 26 21 26 21 51 8z"/>
<path d="M1477 792 c-49 -54 18 -137 78 -98 55 36 35 116 -29 116 -19 0 -40
-8 -49 -18z m78 -12 c24 -26 13 -68 -20 -76 -33 -8 -55 11 -55 47 0 46 44 63
75 29z"/>
</g>
</svg>
